<?xml version="1.0" encoding="UTF-8"?>
<svg width="272px" height="271px" viewBox="0 0 272 271" version="1.1" xmlns="http://www.w3.org/2000/svg" xmlns:xlink="http://www.w3.org/1999/xlink">
    <!-- Generator: Sketch 43.2 (39069) - http://www.bohemiancoding.com/sketch -->
    <title>Level Level logo black - square</title>
    <desc>Created with Sketch.</desc>
    <defs></defs>
    <g id="Page-1" stroke="none" stroke-width="1" fill="none" fill-rule="evenodd">
        <g id="Level-Level-logo-black---square" transform="translate(-60.000000, -61.000000)" fill="#000000">
            <g transform="translate(60.000000, 61.000000)">
                <path d="M98.3704232,-0.000144962972 L20.2194353,-0.000144962972 L2.46147126,-0.000144962972 L2.41653274,-0.000144962972 C1.08142377,-0.000144962972 0,1.08127881 0,2.41638778 L0,57.4776734 C0,58.8127824 1.08142377,59.8956558 2.41653274,59.8956558 L20.2194353,59.8956558 C21.5545443,59.8956558 22.6359681,58.8127824 22.6359681,57.4776734 L22.6359681,22.2516712 L98.3704232,22.2516712 C99.7055321,22.2516712 100.786956,21.1702475 100.786956,19.8351385 L100.786956,2.41638778 C100.786956,1.08127881 99.7055321,-0.000144962972 98.3704232,-0.000144962972" id="Fill-1"></path>
                <path d="M172.741936,270.834321 L250.892924,270.834321 L268.650888,270.834321 L268.695827,270.834321 C270.030936,270.834321 271.11236,269.752897 271.11236,268.417788 L271.11236,213.356502 C271.11236,212.021393 270.030936,210.93852 268.695827,210.93852 L250.892924,210.93852 C249.557815,210.93852 248.476391,212.021393 248.476391,213.356502 L248.476391,248.582504 L172.741936,248.582504 C171.406827,248.582504 170.325404,249.663928 170.325404,250.999037 L170.325404,268.417788 C170.325404,269.752897 171.406827,270.834321 172.741936,270.834321" id="Fill-4"></path>
                <path d="M72.1827173,115.625511 L58.8678683,115.625511 L58.8678683,71.6089539 C58.8678683,70.2738449 57.769049,69.1909715 56.4136452,69.1909715 L47.9478077,69.1909715 C46.5924039,69.1909715 45.4950342,70.2738449 45.4950342,71.6089539 L45.4950342,118.042043 L45.4950342,125.322084 L45.4950342,125.480094 C45.4950342,126.815203 46.5764579,127.896626 47.9115669,127.896626 L72.1827173,127.896626 C73.5178263,127.896626 74.5992501,126.815203 74.5992501,125.480094 L74.5992501,118.042043 C74.5992501,116.706934 73.5178263,115.625511 72.1827173,115.625511" id="Fill-6"></path>
                <path d="M107.504105,115.957041 L93.2556946,115.957041 L93.2556946,103.369906 L105.267326,103.369906 C106.600986,103.369906 107.683859,102.287033 107.683859,100.953373 L107.683859,94.824339 C107.683859,93.48923 106.600986,92.4078062 105.267326,92.4078062 L93.2556946,92.4078062 L93.2556946,80.8136677 L106.511109,80.8136677 C107.844768,80.8136677 108.927642,79.7307943 108.927642,78.397135 L108.927642,71.608519 C108.927642,70.27341 107.844768,69.1919862 106.511109,69.1919862 L90.8391619,69.1919862 L83.1865666,69.1919862 L82.9850681,69.1919862 C81.6499591,69.1919862 80.5685353,70.27341 80.5685353,71.608519 L80.5685353,118.373574 L80.5685353,125.423123 L80.5685353,125.479659 C80.5685353,126.814768 81.6499591,127.896191 82.9850681,127.896191 L107.504105,127.896191 C108.839214,127.896191 109.920638,126.814768 109.920638,125.479659 L109.920638,118.373574 C109.920638,117.038465 108.839214,115.957041 107.504105,115.957041" id="Fill-8"></path>
                <path d="M155.426689,69.3096962 L145.682278,69.3372391 C144.425449,69.341588 143.148326,70.7404807 142.832306,72.4394467 L135.416001,112.369497 L128.102619,72.285786 C127.792398,70.58682 126.460188,69.1908265 125.129428,69.1908265 L114.813863,69.1908265 C113.484553,69.1908265 112.742342,70.58682 113.154037,72.285786 L126.170262,126.080095 C126.421048,127.116581 127.451735,127.950118 128.475173,127.948668 L134.234552,127.944319 C134.246149,127.944319 134.254847,127.951567 134.264995,127.951567 L141.736386,127.931272 C142.70039,127.928373 143.681789,127.097735 143.932575,126.065599 L156.95025,72.3988571 C157.363395,70.6984414 156.683518,69.3053473 155.426689,69.3096962" id="Fill-10"></path>
                <path d="M189.975714,116.032567 L175.727304,116.032567 L175.727304,103.445432 L187.738936,103.445432 C189.072595,103.445432 190.155468,102.362558 190.155468,101.028899 L190.155468,94.8998647 C190.155468,93.5647557 189.072595,92.4833319 187.738936,92.4833319 L175.727304,92.4833319 L175.727304,80.8891934 L188.982718,80.8891934 C190.316377,80.8891934 191.399251,79.80632 191.399251,78.4726607 L191.399251,71.6840447 C191.399251,70.3489357 190.316377,69.267512 188.982718,69.267512 L173.310771,69.267512 L165.658176,69.267512 L165.456677,69.267512 C164.121568,69.267512 163.040145,70.3489357 163.040145,71.6840447 L163.040145,118.449099 L163.040145,125.498649 L163.040145,125.555184 C163.040145,126.890293 164.121568,127.971717 165.456677,127.971717 L189.975714,127.971717 C191.310823,127.971717 192.392247,126.890293 192.392247,125.555184 L192.392247,118.449099 C192.392247,117.11399 191.310823,116.032567 189.975714,116.032567" id="Fill-12"></path>
                <path d="M226.854729,115.625511 L213.53988,115.625511 L213.53988,71.6089539 C213.53988,70.2738449 212.441061,69.1909715 211.085657,69.1909715 L202.61982,69.1909715 C201.264416,69.1909715 200.167046,70.2738449 200.167046,71.6089539 L200.167046,118.042043 L200.167046,125.322084 L200.167046,125.480094 C200.167046,126.815203 201.24847,127.896626 202.583579,127.896626 L226.854729,127.896626 C228.189838,127.896626 229.271262,126.815203 229.271262,125.480094 L229.271262,118.042043 C229.271262,116.706934 228.189838,115.625511 226.854729,115.625511" id="Fill-14"></path>
                <path d="M72.1827173,187.372759 L58.8678683,187.372759 L58.8678683,143.356202 C58.8678683,142.021093 57.769049,140.93822 56.4136452,140.93822 L47.9478077,140.93822 C46.5924039,140.93822 45.4950342,142.021093 45.4950342,143.356202 L45.4950342,189.789292 L45.4950342,197.069332 L45.4950342,197.227342 C45.4950342,198.562451 46.5764579,199.643875 47.9115669,199.643875 L72.1827173,199.643875 C73.5178263,199.643875 74.5992501,198.562451 74.5992501,197.227342 L74.5992501,189.789292 C74.5992501,188.454183 73.5178263,187.372759 72.1827173,187.372759" id="Fill-16"></path>
                <path d="M107.504105,187.704435 L93.2556946,187.704435 L93.2556946,175.1173 L105.267326,175.1173 C106.600986,175.1173 107.683859,174.034426 107.683859,172.700767 L107.683859,166.571732 C107.683859,165.236623 106.600986,164.1552 105.267326,164.1552 L93.2556946,164.1552 L93.2556946,152.561061 L106.511109,152.561061 C107.844768,152.561061 108.927642,151.478188 108.927642,150.144528 L108.927642,143.355912 C108.927642,142.020804 107.844768,140.93938 106.511109,140.93938 L90.8391619,140.93938 L83.1865666,140.93938 L82.9850681,140.93938 C81.6499591,140.93938 80.5685353,142.020804 80.5685353,143.355912 L80.5685353,190.120967 L80.5685353,197.170517 L80.5685353,197.227052 C80.5685353,198.562161 81.6499591,199.643585 82.9850681,199.643585 L107.504105,199.643585 C108.839214,199.643585 109.920638,198.562161 109.920638,197.227052 L109.920638,190.120967 C109.920638,188.785858 108.839214,187.704435 107.504105,187.704435" id="Fill-18"></path>
                <path d="M155.426689,141.056945 L145.682278,141.084488 C144.425449,141.088837 143.148326,142.487729 142.832306,144.186695 L135.416001,184.116746 L128.102619,144.033035 C127.792398,142.334069 126.460188,140.939525 125.129428,140.939525 L114.813863,140.939525 C113.484553,140.939525 112.742342,142.334069 113.154037,144.033035 L126.170262,197.827344 C126.421048,198.863829 127.451735,199.697366 128.475173,199.695917 L134.234552,199.691568 C134.246149,199.691568 134.254847,199.698816 134.264995,199.698816 L141.736386,199.678521 C142.70039,199.675622 143.681789,198.844984 143.932575,197.812848 L156.95025,144.146106 C157.363395,142.44569 156.683518,141.052596 155.426689,141.056945" id="Fill-20"></path>
                <path d="M189.975714,187.77996 L175.727304,187.77996 L175.727304,175.192825 L187.738936,175.192825 C189.072595,175.192825 190.155468,174.109952 190.155468,172.776293 L190.155468,166.647258 C190.155468,165.312149 189.072595,164.230725 187.738936,164.230725 L175.727304,164.230725 L175.727304,152.636587 L188.982718,152.636587 C190.316377,152.636587 191.399251,151.553714 191.399251,150.220054 L191.399251,143.431438 C191.399251,142.096329 190.316377,141.014905 188.982718,141.014905 L173.310771,141.014905 L165.658176,141.014905 L165.456677,141.014905 C164.121568,141.014905 163.040145,142.096329 163.040145,143.431438 L163.040145,190.196493 L163.040145,197.246042 L163.040145,197.302578 C163.040145,198.637687 164.121568,199.719111 165.456677,199.719111 L189.975714,199.719111 C191.310823,199.719111 192.392247,198.637687 192.392247,197.302578 L192.392247,190.196493 C192.392247,188.861384 191.310823,187.77996 189.975714,187.77996" id="Fill-22"></path>
                <path d="M226.854729,187.372759 L213.53988,187.372759 L213.53988,143.356202 C213.53988,142.021093 212.441061,140.93822 211.085657,140.93822 L202.61982,140.93822 C201.264416,140.93822 200.167046,142.021093 200.167046,143.356202 L200.167046,189.789292 L200.167046,197.069332 L200.167046,197.227342 C200.167046,198.562451 201.24847,199.643875 202.583579,199.643875 L226.854729,199.643875 C228.189838,199.643875 229.271262,198.562451 229.271262,197.227342 L229.271262,189.789292 C229.271262,188.454183 228.189838,187.372759 226.854729,187.372759" id="Fill-24"></path>
            </g>
        </g>
    </g>
</svg>